<svg width="1185" height="393" viewBox="0 0 1185 393" fill="none" xmlns="http://www.w3.org/2000/svg">
<path d="M270.33 108.746C283.851 98.2906 300.185 91.312 318.006 89.1362C317.086 105.711 312.057 120.921 307.278 135.23L307.277 135.23L307.266 135.263L307.263 135.272C306.073 138.837 304.891 142.375 303.829 145.803C302.745 149.298 301.632 153.111 300.823 157.052C300.621 156.644 300.415 156.232 300.208 155.816L300.046 155.49C293.305 141.945 284.513 124.278 270.33 108.746ZM287.595 185.73C273.167 180.89 254.325 174.57 233.162 173.67C235.398 155.873 242.429 139.57 252.93 126.086C264.031 138.47 271.244 152.805 277.996 166.322L278.016 166.362C279.695 169.724 281.362 173.062 283.034 176.236C284.706 179.408 286.573 182.816 288.731 186.111C288.47 186.024 288.207 185.935 287.943 185.847L287.595 185.73ZM233.161 198.233C249.893 199.093 265.238 204.164 279.665 208.981L279.706 208.994C283.272 210.185 286.811 211.367 290.24 212.429L292.46 205.265L290.24 212.429C294.751 213.827 299.791 215.274 304.951 216.052C303.455 216.806 301.891 217.584 300.256 218.398L299.94 218.555C286.674 225.154 269.455 233.72 254.163 247.378C242.978 233.6 235.482 216.722 233.161 198.233ZM370.114 161.69C366.03 160.424 361.511 159.118 356.863 158.305C358.469 157.493 360.156 156.653 361.927 155.772L361.928 155.772L361.933 155.769L361.94 155.766L361.941 155.766L362.242 155.616C375.426 149.058 392.515 140.557 407.734 127.046C418.251 140.9 425.144 157.642 427.015 175.876C410.35 174.989 395.065 169.937 380.689 165.138L380.689 165.138L380.656 165.127L380.647 165.124C377.081 163.933 373.542 162.752 370.114 161.69ZM329.714 145.592C329.943 144.91 330.176 144.215 330.413 143.508L330.529 143.164C335.333 128.847 341.597 110.181 342.571 89.218C360.556 91.5365 377.005 98.7507 390.545 109.489C378.414 120.036 364.535 127.014 351.423 133.56L351.422 133.561L351.42 133.562L351.418 133.562L351.382 133.581C348.019 135.259 344.681 136.926 341.507 138.598L345.002 145.234L341.507 138.598C337.714 140.596 333.585 142.872 329.714 145.592ZM375.926 189.449C389.726 194.049 407.112 199.478 426.465 200.416C424.049 216.685 417.613 231.644 408.194 244.256C397.684 232.147 390.721 218.303 384.188 205.222L384.186 205.219L384.186 205.218L384.184 205.215L384.166 205.178C382.487 201.817 380.821 198.481 379.149 195.308C378.151 193.414 377.083 191.436 375.926 189.449ZM391.107 261.974C378.489 272.134 363.297 279.211 346.666 282.078C347.651 265.679 352.633 250.616 357.368 236.438L357.383 236.394C358.573 232.83 359.755 229.292 360.817 225.865L353.886 223.717L360.817 225.865C361.594 223.359 362.386 220.69 363.07 217.927C369.568 230.958 378 247.358 391.107 261.974ZM350.876 186.999L351.276 186.296L350.876 186.999ZM334.624 226.992C334.495 227.378 334.364 227.767 334.233 228.16L334.116 228.507C329.256 242.99 322.902 261.922 322.043 283.185C303.369 281.686 286.186 274.934 271.961 264.401C284.015 254.009 297.764 247.098 310.76 240.61L310.801 240.589C314.164 238.911 317.502 237.244 320.677 235.572C325.183 233.198 330.166 230.43 334.624 226.992Z" fill="#F3F9FB" stroke="#474F85" stroke-width="15"/>
<path d="M638.32 267.672C640.624 271.128 641.776 274.488 641.776 277.752C641.776 282.168 639.952 285.816 636.304 288.696C632.848 291.576 628.72 293.016 623.92 293.016C620.848 293.016 617.872 292.344 614.992 291C612.304 289.464 610 287.256 608.08 284.376L569.776 226.2C565.936 220.056 561.808 215.736 557.392 213.24C553.168 210.744 547.6 209.496 540.688 209.496H512.464V274.008C512.464 279.768 510.832 284.376 507.568 287.832C504.304 291.096 499.888 292.728 494.32 292.728C488.752 292.728 484.24 291.096 480.784 287.832C477.52 284.376 475.888 279.768 475.888 274.008V105.528C475.888 99.96 477.424 95.64 480.496 92.568C483.76 89.496 488.176 87.96 493.744 87.96H565.744C588.784 87.96 606.256 93.144 618.16 103.512C630.256 113.688 636.304 128.472 636.304 147.864C636.304 163.608 631.792 176.568 622.768 186.744C613.936 196.728 601.36 203.16 585.04 206.04C590.608 207.384 595.504 209.784 599.728 213.24C603.952 216.696 608.08 221.496 612.112 227.64L638.32 267.672ZM560.56 180.984C574.576 180.984 584.848 178.392 591.376 173.208C597.904 167.832 601.168 159.672 601.168 148.728C601.168 137.592 597.904 129.528 591.376 124.536C584.848 119.352 574.576 116.76 560.56 116.76H512.176V180.984H560.56ZM737.041 292.44C731.281 292.44 726.673 290.808 723.217 287.544C719.953 284.088 718.321 279.576 718.321 274.008V118.488H665.905C654.385 118.488 648.625 113.4 648.625 103.224C648.625 93.048 654.385 87.96 665.905 87.96H807.889C819.409 87.96 825.169 93.048 825.169 103.224C825.169 113.4 819.409 118.488 807.889 118.488H755.473V274.008C755.473 279.576 753.745 284.088 750.289 287.544C747.025 290.808 742.609 292.44 737.041 292.44ZM864.994 291C859.426 291 855.01 289.464 851.746 286.392C848.674 283.32 847.138 279 847.138 273.432V105.528C847.138 99.96 848.674 95.64 851.746 92.568C855.01 89.496 859.426 87.96 864.994 87.96H968.962C974.53 87.96 978.85 89.208 981.922 91.704C984.994 94.2 986.53 97.752 986.53 102.36C986.53 107.16 984.994 110.904 981.922 113.592C978.85 116.088 974.53 117.336 968.962 117.336H883.426V173.208H963.202C968.77 173.208 973.09 174.456 976.162 176.952C979.234 179.448 980.77 183.096 980.77 187.896C980.77 192.504 979.234 196.056 976.162 198.552C973.09 201.048 968.77 202.296 963.202 202.296H883.426V261.624H968.962C974.53 261.624 978.85 262.968 981.922 265.656C984.994 268.152 986.53 271.8 986.53 276.6C986.53 281.208 984.994 284.76 981.922 287.256C978.85 289.752 974.53 291 968.962 291H864.994ZM1172.59 264.504C1175.66 268.152 1177.2 271.8 1177.2 275.448C1177.2 280.056 1175.37 284.088 1171.72 287.544C1168.27 291 1164.24 292.728 1159.63 292.728C1154.83 292.728 1150.6 290.616 1146.96 286.392L1088.49 213.816L1029.74 286.392C1026.28 290.424 1022.16 292.44 1017.36 292.44C1012.75 292.44 1008.62 290.808 1004.97 287.544C1001.52 284.088 999.787 280.056 999.787 275.448C999.787 271.608 1001.23 267.96 1004.11 264.504L1066.89 187.896L1006.7 114.456C1003.82 111.384 1002.38 107.736 1002.38 103.512C1002.38 98.904 1004.11 94.968 1007.56 91.704C1011.02 88.248 1015.05 86.52 1019.66 86.52C1024.46 86.52 1028.68 88.632 1032.33 92.856L1088.49 162.264L1144.65 92.856C1148.11 88.632 1152.24 86.52 1157.04 86.52C1161.64 86.52 1165.68 88.248 1169.13 91.704C1172.78 94.968 1174.6 98.904 1174.6 103.512C1174.6 107.736 1173.16 111.384 1170.28 114.456L1110.09 187.896L1172.59 264.504Z" fill="#474F85"/>
<path d="M169.632 96.024C172.704 89.496 177.792 86.232 184.896 86.232C189.696 86.232 194.016 87.768 197.856 90.84C201.696 93.912 203.616 97.752 203.616 102.36C203.616 104.472 203.04 106.872 201.888 109.56L122.112 281.208C120.384 284.856 117.696 287.736 114.048 289.848C110.592 291.768 106.848 292.728 102.816 292.728C98.784 292.728 94.944 291.768 91.296 289.848C87.84 287.736 85.248 284.856 83.52 281.208L4.032 109.56C2.88 106.872 2.304 104.568 2.304 102.648C2.304 97.848 4.224 93.912 8.064 90.84C12.096 87.768 16.608 86.232 21.6 86.232C24.864 86.232 27.84 87.096 30.528 88.824C33.408 90.36 35.616 92.76 37.152 96.024L103.392 243.192L169.632 96.024Z" fill="#474F85"/>
</svg>
